<mxfile host="app.diagrams.net" modified="2024-03-20T13:02:32.044Z" agent="Mozilla/5.0 (X11; Ubuntu; Linux x86_64; rv:123.0) Gecko/20100101 Firefox/123.0" etag="5n6wKkhyWX_rbYyCkADL" version="24.0.5" type="github">
  <diagram name="Page-1" id="FEUzagKps-RWrclbNPCi">
    <mxGraphModel dx="1434" dy="696" grid="1" gridSize="10" guides="1" tooltips="1" connect="1" arrows="1" fold="1" page="1" pageScale="1" pageWidth="827" pageHeight="1169" math="0" shadow="0">
      <root>
        <mxCell id="0" />
        <mxCell id="1" parent="0" />
        <mxCell id="fPG9CJyI1WqnSzjEBPLk-1" value="catalog and inventory" style="rounded=0;whiteSpace=wrap;html=1;fillColor=#d5e8d4;strokeColor=#82b366;" vertex="1" parent="1">
          <mxGeometry x="100" y="280" width="130" height="60" as="geometry" />
        </mxCell>
        <mxCell id="fPG9CJyI1WqnSzjEBPLk-3" value="accounting" style="rounded=0;whiteSpace=wrap;html=1;fillColor=#d5e8d4;strokeColor=#82b366;" vertex="1" parent="1">
          <mxGeometry x="414" y="270" width="120" height="60" as="geometry" />
        </mxCell>
        <mxCell id="fPG9CJyI1WqnSzjEBPLk-4" value="queue" style="shape=cylinder3;whiteSpace=wrap;html=1;boundedLbl=1;backgroundOutline=1;size=15;direction=south;fillColor=#dae8fc;strokeColor=#6c8ebf;" vertex="1" parent="1">
          <mxGeometry x="630" y="180" width="80" height="60" as="geometry" />
        </mxCell>
        <mxCell id="fPG9CJyI1WqnSzjEBPLk-5" value="review service" style="rounded=0;whiteSpace=wrap;html=1;fillColor=#d5e8d4;strokeColor=#82b366;" vertex="1" parent="1">
          <mxGeometry x="220" y="420" width="130" height="60" as="geometry" />
        </mxCell>
        <mxCell id="fPG9CJyI1WqnSzjEBPLk-6" value="order management" style="rounded=0;whiteSpace=wrap;html=1;fillColor=#d5e8d4;strokeColor=#82b366;" vertex="1" parent="1">
          <mxGeometry x="605" y="420" width="130" height="60" as="geometry" />
        </mxCell>
        <mxCell id="fPG9CJyI1WqnSzjEBPLk-7" value="reporting" style="rounded=0;whiteSpace=wrap;html=1;fillColor=#d5e8d4;strokeColor=#82b366;" vertex="1" parent="1">
          <mxGeometry x="404" y="400" width="130" height="60" as="geometry" />
        </mxCell>
        <mxCell id="fPG9CJyI1WqnSzjEBPLk-8" value="search and recommandation engine" style="rounded=0;whiteSpace=wrap;html=1;fillColor=#d5e8d4;strokeColor=#82b366;" vertex="1" parent="1">
          <mxGeometry x="284" y="150" width="130" height="60" as="geometry" />
        </mxCell>
        <mxCell id="fPG9CJyI1WqnSzjEBPLk-9" value="shipping service" style="rounded=0;whiteSpace=wrap;html=1;fillColor=#d5e8d4;strokeColor=#82b366;" vertex="1" parent="1">
          <mxGeometry x="420" y="530" width="130" height="60" as="geometry" />
        </mxCell>
      </root>
    </mxGraphModel>
  </diagram>
</mxfile>
